# xmcd
#
# Track frame offsets:
#	150
#	16782
#	35725
#	54795
#	70820
#	90340
#	110157
#	130032
#	152175
#	166835
#
# Disc length: 2855 seconds
#
# Revision: 4
# Processed by: cddbd v1.5.2PL0 Copyright (c) Steve Scherf et al.
# Submitted via: audiograbber 1.83.01
#
DISCID=740b250a
DTITLE=Travis - The man who
DYEAR=1999
DGENRE=Rock
TTITLE0=Writing to reach you
TTITLE1=The fear
TTITLE2=As you are
TTITLE3=Driftwood
TTITLE4=The last laugh of the laughter
TTITLE5=Turn
TTITLE6=Why does it always rain on me
TTITLE7=Luv
TTITLE8=She's so strange
TTITLE9=Slide show
EXTD=
EXTT0=
EXTT1=
EXTT2=
EXTT3=
EXTT4=
EXTT5=
EXTT6=
EXTT7=
EXTT8=
EXTT9=
PLAYORDER=
